<svg xmlns="http://www.w3.org/2000/svg" xmlns:xlink="http://www.w3.org/1999/xlink" width="60" zoomAndPan="magnify" viewBox="0 0 45 44.999999" height="60" preserveAspectRatio="xMidYMid meet" version="1.0"><defs><clipPath id="8affb32309"><path d="M 9 29 L 34 29 L 34 42 L 9 42 Z M 9 29 " clip-rule="nonzero"/></clipPath><clipPath id="003470ffc9"><path d="M 8.929688 29.699219 L 21.65625 16.972656 L 34.382812 29.699219 L 21.65625 42.429688 Z M 8.929688 29.699219 " clip-rule="nonzero"/></clipPath><clipPath id="675c1d3b5e"><path d="M 8.929688 29.699219 L 21.65625 16.972656 L 34.382812 29.699219 L 21.65625 42.429688 Z M 8.929688 29.699219 " clip-rule="nonzero"/></clipPath><clipPath id="7d8e074391"><path d="M 9 29 L 35 29 L 35 43 L 9 43 Z M 9 29 " clip-rule="nonzero"/></clipPath><clipPath id="f9e1ea6308"><path d="M 8.929688 29.699219 L 21.65625 16.972656 L 34.382812 29.699219 L 21.65625 42.429688 Z M 8.929688 29.699219 " clip-rule="nonzero"/></clipPath><clipPath id="102d856474"><path d="M 8.929688 29.699219 L 21.65625 16.972656 L 34.382812 29.699219 L 21.65625 42.429688 Z M 8.929688 29.699219 " clip-rule="nonzero"/></clipPath><clipPath id="fce0a67510"><path d="M 4.894531 1.726562 L 38.644531 1.726562 L 38.644531 35.476562 L 4.894531 35.476562 Z M 4.894531 1.726562 " clip-rule="nonzero"/></clipPath><clipPath id="0720afe875"><path d="M 2.8125 0 L 40.3125 0 L 40.3125 45 L 2.8125 45 Z M 2.8125 0 " clip-rule="nonzero"/></clipPath><clipPath id="9e6c67a11a"><path d="M 12.191406 9.085938 L 32.441406 9.085938 L 32.441406 29.335938 L 12.191406 29.335938 Z M 12.191406 9.085938 " clip-rule="nonzero"/></clipPath><clipPath id="b591f9346d"><path d="M 9.273438 3.375 L 34.023438 3.375 L 34.023438 28.125 L 9.273438 28.125 Z M 9.273438 3.375 " clip-rule="nonzero"/></clipPath><clipPath id="2bac861bfb"><path d="M 9.273438 5 L 34 5 L 34 28 L 9.273438 28 Z M 9.273438 5 " clip-rule="nonzero"/></clipPath></defs><g clip-path="url(#8affb32309)"><g clip-path="url(#003470ffc9)"><g clip-path="url(#675c1d3b5e)"><path fill="#ffffff" d="M 9.601562 29.738281 L 21.695312 41.832031 L 33.789062 29.738281 Z M 9.601562 29.738281 " fill-opacity="1" fill-rule="nonzero"/></g></g></g><g clip-path="url(#7d8e074391)"><g clip-path="url(#f9e1ea6308)"><g clip-path="url(#102d856474)"><path fill="#ffffff" d="M 34.066406 30.015625 L 21.972656 42.109375 C 21.773438 42.308594 21.539062 42.308594 21.378906 42.148438 L 9.285156 30.058594 C 9.167969 29.9375 9.125 29.738281 9.207031 29.582031 C 9.207031 29.421875 9.402344 29.304688 9.5625 29.304688 L 33.75 29.304688 C 33.910156 29.304688 34.066406 29.382812 34.144531 29.542969 C 34.1875 29.738281 34.1875 29.898438 34.066406 30.015625 Z M 21.65625 41.238281 L 32.71875 30.175781 L 10.59375 30.175781 Z M 21.65625 41.238281 " fill-opacity="1" fill-rule="nonzero"/></g></g></g><g clip-path="url(#fce0a67510)"><path fill="#ffffff" d="M 38.644531 18.601562 C 38.644531 19.152344 38.617188 19.703125 38.5625 20.253906 C 38.507812 20.804688 38.425781 21.351562 38.320312 21.890625 C 38.210938 22.433594 38.078125 22.96875 37.917969 23.5 C 37.757812 24.027344 37.570312 24.546875 37.359375 25.058594 C 37.148438 25.566406 36.910156 26.066406 36.652344 26.554688 C 36.390625 27.042969 36.105469 27.515625 35.800781 27.976562 C 35.492188 28.433594 35.164062 28.878906 34.8125 29.304688 C 34.460938 29.730469 34.089844 30.140625 33.699219 30.53125 C 33.308594 30.921875 32.902344 31.292969 32.472656 31.644531 C 32.046875 31.996094 31.601562 32.324219 31.144531 32.628906 C 30.683594 32.9375 30.210938 33.222656 29.722656 33.480469 C 29.234375 33.742188 28.738281 33.976562 28.226562 34.191406 C 27.714844 34.402344 27.195312 34.585938 26.667969 34.746094 C 26.136719 34.910156 25.601562 35.042969 25.058594 35.148438 C 24.519531 35.257812 23.972656 35.339844 23.421875 35.394531 C 22.871094 35.449219 22.320312 35.472656 21.769531 35.472656 C 21.214844 35.472656 20.664062 35.449219 20.113281 35.394531 C 19.5625 35.339844 19.019531 35.257812 18.476562 35.148438 C 17.933594 35.042969 17.398438 34.910156 16.871094 34.746094 C 16.339844 34.585938 15.820312 34.402344 15.3125 34.191406 C 14.800781 33.976562 14.300781 33.742188 13.8125 33.480469 C 13.328125 33.222656 12.851562 32.9375 12.394531 32.628906 C 11.933594 32.324219 11.492188 31.996094 11.0625 31.644531 C 10.636719 31.292969 10.226562 30.921875 9.835938 30.53125 C 9.445312 30.140625 9.074219 29.730469 8.722656 29.304688 C 8.375 28.878906 8.042969 28.433594 7.738281 27.976562 C 7.429688 27.515625 7.148438 27.042969 6.886719 26.554688 C 6.625 26.066406 6.390625 25.566406 6.179688 25.058594 C 5.964844 24.546875 5.78125 24.027344 5.621094 23.5 C 5.460938 22.96875 5.324219 22.433594 5.21875 21.890625 C 5.109375 21.351562 5.027344 20.804688 4.976562 20.253906 C 4.921875 19.703125 4.894531 19.152344 4.894531 18.601562 C 4.894531 18.046875 4.921875 17.496094 4.976562 16.945312 C 5.027344 16.394531 5.109375 15.851562 5.21875 15.308594 C 5.324219 14.765625 5.460938 14.230469 5.621094 13.703125 C 5.78125 13.171875 5.964844 12.652344 6.179688 12.140625 C 6.390625 11.632812 6.625 11.132812 6.886719 10.644531 C 7.148438 10.15625 7.429688 9.683594 7.738281 9.226562 C 8.042969 8.765625 8.375 8.320312 8.722656 7.894531 C 9.074219 7.46875 9.445312 7.058594 9.835938 6.667969 C 10.226562 6.277344 10.636719 5.90625 11.0625 5.554688 C 11.492188 5.203125 11.933594 4.875 12.394531 4.570312 C 12.851562 4.261719 13.328125 3.976562 13.8125 3.71875 C 14.300781 3.457031 14.800781 3.222656 15.3125 3.007812 C 15.820312 2.796875 16.339844 2.613281 16.871094 2.453125 C 17.398438 2.292969 17.933594 2.15625 18.476562 2.050781 C 19.019531 1.941406 19.5625 1.859375 20.113281 1.804688 C 20.664062 1.753906 21.214844 1.726562 21.769531 1.726562 C 22.320312 1.726562 22.871094 1.753906 23.421875 1.804688 C 23.972656 1.859375 24.519531 1.941406 25.058594 2.050781 C 25.601562 2.15625 26.136719 2.292969 26.667969 2.453125 C 27.195312 2.613281 27.714844 2.796875 28.226562 3.007812 C 28.738281 3.222656 29.234375 3.457031 29.722656 3.71875 C 30.210938 3.976562 30.683594 4.261719 31.144531 4.570312 C 31.601562 4.875 32.046875 5.203125 32.472656 5.554688 C 32.902344 5.90625 33.308594 6.277344 33.699219 6.667969 C 34.089844 7.058594 34.460938 7.46875 34.8125 7.894531 C 35.164062 8.320312 35.492188 8.765625 35.800781 9.226562 C 36.105469 9.683594 36.390625 10.15625 36.652344 10.644531 C 36.910156 11.132812 37.148438 11.632812 37.359375 12.140625 C 37.570312 12.652344 37.757812 13.171875 37.917969 13.703125 C 38.078125 14.230469 38.210938 14.765625 38.320312 15.308594 C 38.425781 15.851562 38.507812 16.394531 38.5625 16.945312 C 38.617188 17.496094 38.644531 18.046875 38.644531 18.601562 Z M 38.644531 18.601562 " fill-opacity="1" fill-rule="nonzero"/></g><g clip-path="url(#0720afe875)"><path fill="#0074d4" d="M 21.535156 0 C 11.234375 0 2.878906 8.390625 2.878906 18.75 C 2.878906 23.925781 4.964844 28.613281 8.34375 32.007812 L 21.535156 45 L 34.730469 32.003906 C 38.105469 28.613281 40.195312 23.925781 40.191406 18.746094 C 40.191406 8.398438 31.839844 0 21.535156 0 Z M 32.09375 29.347656 L 21.535156 39.75 L 10.957031 29.324219 C 8.160156 26.519531 6.609375 22.753906 6.609375 18.75 C 6.609375 10.480469 13.304688 3.75 21.535156 3.75 C 25.519531 3.75 29.269531 5.3125 32.089844 8.144531 C 34.90625 10.980469 36.460938 14.746094 36.460938 18.746094 C 36.464844 22.753906 34.910156 26.519531 32.09375 29.347656 Z M 32.09375 29.347656 " fill-opacity="1" fill-rule="nonzero"/></g><path fill="#0074d4" d="M 21.535156 9.375 L 12.207031 18.75 L 15.003906 18.75 L 15.003906 26.25 L 19.667969 26.25 L 19.667969 20.625 L 23.398438 20.625 L 23.398438 26.25 L 28.066406 26.25 L 28.066406 18.75 L 30.863281 18.75 Z M 21.535156 9.375 " fill-opacity="1" fill-rule="nonzero"/><g clip-path="url(#9e6c67a11a)"><path fill="#ffffff" d="M 32.441406 19.210938 C 32.441406 19.875 32.378906 20.53125 32.246094 21.183594 C 32.117188 21.835938 31.925781 22.46875 31.671875 23.082031 C 31.417969 23.699219 31.105469 24.28125 30.734375 24.835938 C 30.367188 25.386719 29.945312 25.898438 29.476562 26.367188 C 29.007812 26.839844 28.496094 27.257812 27.941406 27.628906 C 27.390625 27.996094 26.804688 28.308594 26.191406 28.5625 C 25.578125 28.816406 24.945312 29.011719 24.292969 29.140625 C 23.640625 29.269531 22.980469 29.335938 22.316406 29.335938 C 21.652344 29.335938 20.992188 29.269531 20.339844 29.140625 C 19.691406 29.011719 19.054688 28.816406 18.441406 28.5625 C 17.828125 28.308594 17.246094 27.996094 16.691406 27.628906 C 16.140625 27.257812 15.628906 26.839844 15.15625 26.367188 C 14.6875 25.898438 14.269531 25.386719 13.898438 24.835938 C 13.527344 24.28125 13.21875 23.699219 12.960938 23.082031 C 12.707031 22.46875 12.515625 21.835938 12.386719 21.183594 C 12.257812 20.53125 12.191406 19.875 12.191406 19.210938 C 12.191406 18.542969 12.257812 17.886719 12.386719 17.234375 C 12.515625 16.582031 12.707031 15.949219 12.960938 15.335938 C 13.21875 14.71875 13.527344 14.136719 13.898438 13.582031 C 14.269531 13.03125 14.6875 12.519531 15.15625 12.050781 C 15.628906 11.578125 16.140625 11.160156 16.691406 10.789062 C 17.246094 10.421875 17.828125 10.109375 18.441406 9.855469 C 19.054688 9.601562 19.691406 9.410156 20.339844 9.277344 C 20.992188 9.148438 21.652344 9.085938 22.316406 9.085938 C 22.980469 9.085938 23.640625 9.148438 24.292969 9.277344 C 24.945312 9.410156 25.578125 9.601562 26.191406 9.855469 C 26.804688 10.109375 27.390625 10.421875 27.941406 10.789062 C 28.496094 11.160156 29.007812 11.578125 29.476562 12.050781 C 29.945312 12.519531 30.367188 13.03125 30.734375 13.582031 C 31.105469 14.136719 31.417969 14.71875 31.671875 15.335938 C 31.925781 15.949219 32.117188 16.582031 32.246094 17.234375 C 32.378906 17.886719 32.441406 18.542969 32.441406 19.210938 Z M 32.441406 19.210938 " fill-opacity="1" fill-rule="nonzero"/></g><g clip-path="url(#b591f9346d)"><path fill="#0074d4" d="M 21.683594 -6.652344 C 8.085938 -6.652344 -2.945312 4.394531 -2.945312 18.035156 C -2.945312 24.847656 -0.191406 31.019531 4.269531 35.488281 L 21.683594 52.597656 L 39.101562 35.484375 C 43.558594 31.019531 46.316406 24.851562 46.3125 18.03125 C 46.3125 4.40625 35.285156 -6.652344 21.683594 -6.652344 Z M 35.621094 31.988281 L 21.683594 45.683594 L 7.71875 31.960938 C 4.027344 28.269531 1.976562 23.308594 1.976562 18.035156 C 1.976562 7.144531 10.816406 -1.714844 21.683594 -1.714844 C 26.945312 -1.714844 31.894531 0.34375 35.613281 4.074219 C 39.335938 7.804688 41.386719 12.761719 41.386719 18.03125 C 41.390625 23.308594 39.339844 28.261719 35.621094 31.988281 Z M 35.621094 31.988281 " fill-opacity="1" fill-rule="nonzero"/></g><g clip-path="url(#2bac861bfb)"><path fill="#0074d4" d="M 21.683594 5.691406 L 9.367188 18.035156 L 13.0625 18.035156 L 13.0625 27.910156 L 19.21875 27.910156 L 19.21875 20.503906 L 24.144531 20.503906 L 24.144531 27.910156 L 30.300781 27.910156 L 30.300781 18.035156 L 33.996094 18.035156 Z M 21.683594 5.691406 " fill-opacity="1" fill-rule="nonzero"/></g></svg>